# AST/ASF file generated using VICON BodyLanguage
# -----------------------------------------------
:version 1.10
:name VICON
:units
  mass 1.0
  length 0.45
  angle deg
:documentation
   .ast/.asf automatically generated from VICON data using
   VICON BodyBuilder and BodyLanguage model FoxedUp or BRILLIANT.MOD
:root
   order TX TY TZ RX RY RZ
   axis XYZ
   position 0 0 0  
   orientation 0 0 0 
:bonedata
  begin
     id 1 
     name lhipjoint
     direction 0.611804 -0.747784 0.257906 
     length 2.29243 
     axis 0 0 0  XYZ
  end
  begin
     id 2 
     name lfemur
     direction 0.34202 -0.939693 0  
     length 7.31159  
     axis 0 0 20  XYZ
    dof rx ry rz
    limits (-160.0 20.0)
           (-70.0 70.0)
           (-60.0 70.0)
  end
  begin
     id 3 
     name ltibia
     direction 0.34202 -0.939693 0   
     length 7.33391   
     axis 0 0 20   XYZ
    dof rx
    limits (-10.0 170.0)
  end
  begin
     id 4 
     name lfoot
     direction 0.122263 -0.335914 0.933924   
     length 1.76083   
     axis -90 7.62852e-016 20   XYZ
    dof rx rz
    limits (-45.0 90.0)
           (-70.0 20.0)
  end
  begin
     id 5 
     name ltoes
     direction 1.53533e-011 -4.2177e-011 1   
     length 0.879206   
     axis -90 7.62852e-016 20   XYZ
    dof rx
    limits (-90.0 20.0)
  end
  begin
     id 6 
     name rhipjoint
     direction -0.646469 -0.721248 0.248754   
     length 2.37677  
     axis 0 0 0  XYZ 
  end
  begin
     id 7 
     name rfemur
     direction -0.34202 -0.939693 0   
     length 7.18623   
     axis 0 0 -20   XYZ
    dof rx ry rz
    limits (-160.0 20.0)
           (-70.0 70.0)
           (-70.0 60.0)
  end
  begin
     id 8 
     name rtibia
     direction -0.34202 -0.939693 0   
     length 7.36567   
     axis 0 0 -20   XYZ
    dof rx
    limits (-10.0 170.0)
 end
 begin
     id 9 
     name rfoot
     direction -0.126681 -0.348054 0.928876   
     length 1.71902  
     axis -90 -7.62852e-016 -20   XYZ
    dof rx rz
    limits (-45.0 90.0)
           (-20.0 70.0)
  end
  begin
     id 10 
     name rtoes
     direction -1.53551e-011 -4.21898e-011 1   
     length 0.857792   
     axis -90 -7.62852e-016 -20   XYZ
    dof rx
    limits (-90.0 20.0)
  end
  begin
     id 11 
     name lowerback
     direction 0.0106509 0.999778 0.0181844   
     length 2.07668   
     axis 0 0 0   XYZ
    dof rx ry rz
    limits (-20.0 45.0)
           (-30.0 30.0)
           (-30.0 30.0)
  end
  begin
     id 12 
     name upperback
     direction -0.00456018 0.999989 -0.000590935   
     length 2.08011   
     axis 0 0 0   XYZ
    dof rx ry rz
    limits (-20.0 45.0)
           (-30.0 30.0)
           (-30.0 30.0)
  end
  begin
     id 13 
     name thorax
     direction -0.00910382 0.999916 -0.00923765   
     length 2.07397   
     axis 0 0 0   XYZ
    dof rx ry rz
    limits (-20.0 45.0)
           (-30.0 30.0)
           (-30.0 30.0)
  end
  begin
     id 14 
     name lowerneck
     direction 0.00171967 0.99778 0.0665733   
     length 1.67556   
     axis 0 0 0   XYZ
    dof rx ry rz
    limits (-20.0 45.0)
           (-30.0 30.0)
           (-30.0 30.0)
  end
  begin
     id 15 
     name upperneck
     direction -0.0143166 0.991302 -0.130828   
     length 1.68462   
     axis 0 0 0   XYZ
    dof rx ry rz
    limits (-20.0 45.0)
           (-30.0 30.0)
           (-30.0 30.0)
  end
  begin
     id 16
     name head
     direction -0.00606378 0.998665 -0.0512995  
     length 1.69269  
     axis 0 0 0   XYZ
    dof rx ry rz
    limits (-20.0 45.0)
           (-30.0 30.0)
           (-30.0 30.0)
  end
  begin
     id 17 
     name lclavicle
     direction 0.9638 0.179341 0.197297  
     length 4.12888  
     axis 0 0 0   XYZ
    dof ry rz
    limits (-20.0 10.0)
           (0.0 20.0)
  end
  begin
     id 18 
     name lhumerus
     direction 1 -4.48972e-011 -2.47351e-027   
     length 5.01834   
     axis -180 -30 -90   XYZ
    dof rx ry rz
    limits (-60.0 90.0)
           (-90.0 90.0)
           (-90.0 90.0)
  end
  begin
     id 19
     name lradius
     direction 1 -4.48965e-011 1.51591e-026   
     length 3.4869   
     axis -180 -30 -90   XYZ
    dof rx
    limits (-10.0 170.0)
  end
  begin
     id 20
     name lwrist
     direction 1 -4.48957e-011 2.70032e-026   
     length 1.74345   
     axis -1.81515e-014 90 90   XYZ
    dof ry
    limits (-180.0 0.0)
 end
  begin
     id 21 
     name lhand
     direction 1 -4.48951e-011 5.40064e-026   
     length 0.76799   
     axis -3.44607e-014 90 90   XYZ
    dof rx rz
    limits (-90.0 90.0)
           (-45.0 45.0)
  end
  begin
     id 22 
     name lfingers
     direction 1 -4.48971e-011 1.08013e-025   
     length 0.619174   
     axis -6.89214e-014 90 90   XYZ
    dof rx
    limits (0.0 90.0)
  end
  begin
     id 23
     name lthumb
     direction 0.707107 -6.34931e-011 0.707107   
     length 0.889013   
     axis -90 45 2.85299e-015   XYZ
    dof rx rz
    limits (-45.0 45.0)
           (-45.0 45.0)
  end
  begin
     id 24 
     name rclavicle
     direction -0.961409 0.252588 0.109054   
     length 4.04305  
     axis 0 0 0   XYZ 
    dof ry rz
    limits (-10.0 20.0)
           (-20.0 0.0)
  end
  begin
     id 25 
     name rhumerus
     direction -1 -4.4897e-011 1.33872e-017  
     length 4.70164   
     axis -180 30 90   XYZ
    dof rx ry rz
    limits (-90.0 60.0)
           (-90.0 90.0)
           (-90.0 90.0)
  end
  begin
     id 26 
     name rradius
     direction -1 -4.48954e-011 1.83844e-026   
     length 3.49911   
     axis -180 30 90   XYZ
    dof rx
    limits (-10.0 170.0)
  end
  begin
     id 27 
     name rwrist
     direction -1 -4.49008e-011 2.70032e-026   
     length 1.74955   
     axis -1.81515e-014 -90 -90   XYZ
    dof ry
    limits (-180.0 0.0)
  end
  begin
     id 28
     name rhand
     direction -1 -4.48916e-011 5.40064e-026   
     length 0.739335   
     axis -3.44607e-014 -90 -90   XYZ
    dof rx rz
    limits (-90.0 90.0)
           (-45.0 45.0)
  end
  begin
     id 29
     name rfingers
     direction -1 -4.48987e-011 1.08013e-025   
     length 0.596071   
     axis -6.89214e-014 -90 -90   XYZ
    dof rx
    limits (0.0 90.0)
  end
  begin
     id 30
     name rthumb
     direction -0.707107 -6.34935e-011 0.707107   
     length 0.855843   
     axis -90 -45 -2.85299e-015   XYZ
    dof rx rz
    limits (-45.0 45.0)
           (-45.0 45.0)
  end
:hierarchy
  begin
    root lhipjoint rhipjoint lowerback
    lhipjoint lfemur
    lfemur ltibia
    ltibia lfoot
    lfoot ltoes
    rhipjoint rfemur
    rfemur rtibia
    rtibia rfoot
    rfoot rtoes
    lowerback upperback
    upperback thorax
    thorax lowerneck lclavicle rclavicle
    lowerneck upperneck
    upperneck head
    lclavicle lhumerus
    lhumerus lradius
    lradius lwrist
    lwrist lhand lthumb
    lhand lfingers
    rclavicle rhumerus
    rhumerus rradius
    rradius rwrist
    rwrist rhand rthumb
    rhand rfingers
  end

#!OML:ASF I:\salsa\salsa 7_09\Patient 1\Session 1\dancermale.ASF
:FULLY-SPECIFIED
:DEGREES
994
root -0.25975 17.2974 6.54947 184.929 -85.1392 -181.352
lowerback -5.68295 -2.60106 3.91042
upperback -3.08112 -3.77816 2.76693
thorax -0.0567054 -1.96058 0.451399
lowerneck -10.5233 6.10743 2.74251
upperneck 22.8135 10.2482 -11.8973
head 9.74501 3.4933 -3.42996
rclavicle -1.15295e-014 6.67916e-014
rhumerus -20.5686 5.14186 -90.2513
rradius 67.8677
rwrist -1.01355
rhand -38.1772 -1.91114
rfingers 7.12502
rthumb -11.2102 -31.5916
lclavicle -1.15295e-014 6.67916e-014
lhumerus 59.6112 -51.0469 39.3695
lradius 116.069
lwrist 35.8797
lhand -11.9072 64.8115
lfingers 7.12502
lthumb 14.1465 265.69
rfemur -21.0567 -0.793683 22.8352
rtibia 17.1257
rfoot -4.45542 -12.6556
rtoes 12.2845
lfemur 3.48651 -7.40459 -23.9978
ltibia 28.2607
lfoot -16.6084 -13.7284
ltoes 8.61905
995
root -0.5251 17.2908 6.50733 179.889 -84.8479 -176.317
lowerback -5.87488 -2.21589 4.65698
upperback -3.17066 -3.32111 2.81636
thorax -0.0742802 -1.74586 0.105837
lowerneck -10.3202 6.07153 2.95696
upperneck 23.1631 10.2544 -12.2451
head 9.86398 3.45802 -3.60349
rclavicle -1.20265e-014 -2.22639e-014
rhumerus -20.7697 4.84864 -90.3463
rradius 67.5361
rwrist -1.37701
rhand -37.3824 -0.99885
rfingers 7.12502
rthumb -10.4436 -30.7195
lclavicle -1.20265e-014 -2.22639e-014
lhumerus 56.5947 -53.522 38.9894
lradius 118.625
lwrist 34.4218
lhand -11.2148 64.5667
lfingers 7.12502
lthumb 14.8135 265.983
rfemur -20.761 -0.831027 23.5678
rtibia 18.2956
rfoot -5.75486 -12.5759
rtoes 13.6781
lfemur 2.43061 -6.60319 -23.3777
ltibia 31.8395
lfoot -13.6036 -14.4988
ltoes 10.1219
996
root -0.771509 17.283 6.46211 177.823 -84.1816 -174.143
lowerback -5.62613 -1.7841 5.25677
upperback -3.50525 -2.75511 2.81448
thorax -0.570578 -1.49081 -0.179732
lowerneck -10.0913 6.0945 3.07514
upperneck 23.6497 10.3337 -12.4217
head 10.019 3.45812 -3.69611
rclavicle -1.43125e-014 4.77083e-015
rhumerus -21.0586 4.65537 -90.6085
rradius 67.025
rwrist -1.75965
rhand -36.6386 0.620119
rfingers 7.12502
rthumb -9.72593 -29.1353
lclavicle -1.43125e-014 4.77083e-015
lhumerus 51.9502 -56.2718 39.8879
lradius 120.784
lwrist 33.2227
lhand -11.16 64.0968
lfingers 7.12502
lthumb 14.8664 266.457
rfemur -21.1546 -1.23114 24.2326
rtibia 20.3818
rfoot -7.17382 -11.8425
rtoes 14.0602
lfemur -0.0966298 -4.39136 -22.3832
ltibia 37.3928
lfoot -9.86626 -16.2824
ltoes 14.1497
997
root -1.00399 17.2692 6.4113 178.737 -83.5121 -174.992
lowerback -5.84864 -1.50878 5.41418
upperback -3.32494 -2.42187 2.83366
thorax -0.252746 -1.31702 -0.2448
lowerneck -10.1967 6.21117 2.99382
upperneck 23.5416 10.5582 -12.631
head 10.0325 3.53228 -3.72305
rclavicle 1.2921e-015 -1.59028e-015
rhumerus -20.3697 4.92671 -90.9716
rradius 66.5986
rwrist -1.93027
rhand -36.446 1.63873
rfingers 7.12502
rthumb -9.54013 -28.1253
lclavicle 1.2921e-015 -1.59028e-015
lhumerus 45.9431 -58.3502 41.8871
lradius 122.489
lwrist 32.6584
lhand -11.4039 63.6933
lfingers 7.12502
lthumb 14.6314 266.843
rfemur -21.6687 -1.48552 24.5619
rtibia 22.6668
rfoot -8.80532 -11.2155
rtoes 13.1175
lfemur -2.9557 -2.00747 -21.589
ltibia 43.1773
lfoot -3.77143 -17.8555
ltoes 15.6164
998
root -1.22531 17.2446 6.35425 179.652 -83.0267 -175.904
lowerback -5.85222 -1.19708 5.33945
upperback -3.18345 -2.00738 2.81019
thorax -0.0844463 -1.10219 -0.20977
lowerneck -10.2839 6.18342 3.01989
upperneck 23.4095 10.5256 -12.6924
head 10.0043 3.52136 -3.74745
rclavicle 4.62174e-014 1.90833e-014
rhumerus -19.7919 4.90588 -91.2073
rradius 66.436
rwrist -1.73712
rhand -36.3585 1.99526
rfingers 7.12502
rthumb -9.4557 -27.7726
lclavicle 4.62174e-014 1.90833e-014
lhumerus 38.4245 -60.6593 45.3261
lradius 123.882
lwrist 32.6308
lhand -11.9271 63.4516
lfingers 7.12502
lthumb 14.1272 267.049
rfemur -21.9537 -1.56777 24.8072
rtibia 24.6051
rfoot -10.5305 -11.0481
rtoes 11.8246
lfemur -6.0809 0.298196 -20.7634
ltibia 49.1012
lfoot 2.42943 -19.0069
ltoes 14.8524
999
root -1.43591 17.2041 6.29867 179.242 -82.6378 -175.617
lowerback -5.47188 -0.822142 5.40945
upperback -3.13163 -1.47956 2.70279
thorax -0.225242 -0.840244 -0.324057
lowerneck -10.2316 6.00606 3.18183
upperneck 23.3431 10.2051 -12.5169
head 9.93514 3.42133 -3.75174
rclavicle -1.0138e-014 -2.54444e-014
rhumerus -19.327 4.6133 -91.4375
rradius 66.3111
rwrist -1.42825
rhand -36.0477 2.65143
rfingers 7.12502
rthumb -9.15586 -27.1298
lclavicle -1.0138e-014 -2.54444e-014
lhumerus 28.9963 -62.928 50.4885
lradius 124.963
lwrist 32.6819
lhand -12.4627 63.3142
lfingers 7.12502
lthumb 13.6111 267.151
rfemur -21.9053 -1.69353 25.1891
rtibia 26.1678
rfoot -12.0817 -11.2066
rtoes 10.8322
lfemur -9.25443 2.18504 -19.906
ltibia 55.1133
lfoot 6.24159 -19.5691
ltoes 14.5615
1000
root -1.64053 17.1496 6.24812 178.035 -82.2687 -174.693
lowerback -5.06475 -0.568479 5.59081
upperback -2.932 -1.1211 2.67091
thorax -0.234614 -0.657802 -0.43618
lowerneck -10.1051 5.87081 3.08339
upperneck 23.0793 9.96384 -12.3149
head 9.77514 3.34868 -3.68883
rclavicle 9.93923e-015 2.46493e-014
rhumerus -18.6279 4.92907 -91.6708
rradius 66.2251
rwrist -1.38708
rhand -35.8855 3.56996
rfingers 7.12502
rthumb -8.9993 -26.2181
lclavicle 9.93923e-015 2.46493e-014
lhumerus 17.7316 -64.2528 57.3689
lradius 125.443
lwrist 32.3765
lhand -13.635 63.7146
lfingers 7.12502
lthumb 12.481 266.678
rfemur -21.5073 -1.88018 25.6474
rtibia 27.3968
rfoot -13.4129 -11.67
rtoes 10.29
lfemur -12.2851 3.48096 -19.1278
ltibia 61.0334
lfoot 7.79405 -19.3283
ltoes 4.78672
1001
root -1.84303 17.09 6.20339 175.785 -81.9285 -172.8
lowerback -4.62283 -0.292818 5.97475
upperback -2.64225 -0.741029 2.63921
thorax -0.170329 -0.463025 -0.662873
lowerneck -10.2293 5.72942 3.03118
upperneck 22.9579 9.7547 -12.2371
head 9.72913 3.26347 -3.67202
rclavicle -2.66371e-014 -1.74931e-014
rhumerus -17.6937 5.36186 -91.7582
rradius 66.0793
rwrist -1.35981
rhand -35.9173 4.71251
rfingers 7.12502
rthumb -9.03001 -25.0742
lclavicle -2.66371e-014 -1.74931e-014
lhumerus 5.89777 -64.7605 65.0478
lradius 125.233
lwrist 31.444
lhand -15.6394 64.3378
lfingers 7.12502
lthumb 10.548 265.947
rfemur -20.9343 -1.87407 26.2189
rtibia 28.5032
rfoot -14.6744 -12.1375
rtoes 10.2396
lfemur -15.1728 4.33644 -18.3574
ltibia 66.4577
lfoot 9.06314 -18.5287
ltoes 2.04144
1002
root -2.0394 17.033 6.16135 173.373 -81.4844 -170.807
lowerback -4.15248 0.131258 6.38772
upperback -2.2285 -0.164587 2.59418
thorax 0.0231436 -0.163349 -0.914406
lowerneck -10.5956 5.50842 3.10823
upperneck 22.9777 9.45227 -12.2525
head 9.78358 3.12201 -3.72058
rclavicle -1.53064e-014 6.83819e-014
rhumerus -16.5157 5.50006 -91.5817
rradius 65.9244
rwrist -0.990903
rhand -36.0277 5.83537
rfingers 7.12502
rthumb -9.13657 -23.9467
lclavicle -1.53064e-014 6.83819e-014
lhumerus -5.83757 -64.3703 73.0462
lradius 124.303
lwrist 29
lhand -16.9397 63.8446
lfingers 7.12502
lthumb 9.29355 266.38
rfemur -20.4338 -1.23267 26.8346
rtibia 29.8593
rfoot -16.0091 -12.4157
rtoes 11.1691
lfemur -17.9783 5.10266 -17.6704
ltibia 71.2699
lfoot 6.84142 -16.0874
ltoes -7.53629
1003
root -2.22836 16.9804 6.11795 171.9 -81.1994 -169.604
lowerback -3.68755 0.572224 6.52256
upperback -1.97256 0.45005 2.59926
thorax 0.0663678 0.150438 -0.960995
lowerneck -10.7341 5.21248 3.04264
upperneck 23.0117 9.04473 -12.1907
head 9.77797 2.93349 -3.7366
rclavicle -1.20762e-014 2.54444e-014
rhumerus -15.6829 5.46865 -91.2117
rradius 66.019
rwrist -0.49792
rhand -36.1557 6.41419
rfingers 7.12502
rthumb -9.26007 -23.3625
lclavicle -1.20762e-014 2.54444e-014
lhumerus -17.4167 -62.5698 81.2498
lradius 122.71
lwrist 24.5047
lhand -16.1774 61.8651
lfingers 7.12502
lthumb 10.029 268.394
rfemur -20.2966 -0.220944 27.3348
rtibia 31.5622
rfoot -17.4269 -13.0531
rtoes 13.1023
lfemur -21.048 5.64724 -17.2184
ltibia 75.5684
lfoot 3.85138 -12.9944
ltoes -8.55899
